<svg width="320" height="320" viewBox="0 0 320 320" version="1.1" xmlns="http://www.w3.org/2000/svg" xmlns:xlink="http://www.w3.org/1999/xlink"><title>favicon.svg</title><desc>Created with Sketch.</desc><g id="Page-1" stroke="none" stroke-width="1" fill="none" fill-rule="evenodd"><g id="favicon.svg" fill="#D0021B"><path d="M2.32806981,132.108254 C-1.57335886,136.009683 -1.56529593,142.343212 2.33529833,146.243806 L57.7787265,201.687234 C61.6841474,205.592655 68.0170288,205.591712 71.9190633,201.689677 L157.631727,115.977013 C157.631727,115.977013 180.82713,92.7816106 203.943938,117.020671 C227.060747,141.259731 204.022533,162.367819 204.022533,162.367819 L118.309869,248.080483 C114.405797,251.984554 114.411718,258.320225 118.312312,262.22082 L173.75574,317.664248 C177.661161,321.569669 183.998475,321.564293 187.891292,317.671476 C187.891292,317.671476 273.608741,231.954027 296.804144,208.758624 C319.999547,185.563221 343.194949,115.977013 273.608741,46.3908051 C204.022533,-23.1954031 134.436325,6.0578933e-07 111.240922,23.1954024 C88.0455192,46.3908041 2.32806981,132.108254 2.32806981,132.108254 Z" id="filled"/></g></g></svg>